HIERARCHY
ROOT hip
{
	OFFSET 0.000000 0.000000 0.000000 
	CHANNELS 6 Xposition Yposition Zposition Xrotation Zrotation Yrotation
	JOINT abdomen
	{
		OFFSET 0.000000 3.402643 0.000000 
		CHANNELS 3 Xrotation Zrotation Yrotation
		JOINT chest
		{
			OFFSET 0.000000 8.438565 -0.680529 
			CHANNELS 3 Xrotation Zrotation Yrotation
			JOINT neck
			{
				OFFSET 0.000000 10.207942 -0.272212 
				CHANNELS 3 Xrotation Zrotation Yrotation
				JOINT head
				{
					OFFSET 0.000000 3.130431 0.000000 
					CHANNELS 3 Xrotation Zrotation Yrotation
					End Site
					{
						OFFSET 0.000000 3.130435 0.000000 
					}
				}
			}
			JOINT lCollar
			{
				OFFSET 3.470700 6.669187 -0.816635 
				CHANNELS 3 Yrotation Zrotation Xrotation
				JOINT lShldr
				{
					OFFSET 3.198488 0.000000 0.000000 
					CHANNELS 3 Zrotation Yrotation Xrotation
					JOINT lForeArm
					{
						OFFSET 10.139888 0.000000 0.000000 
						CHANNELS 3 Yrotation Zrotation Xrotation
						JOINT lHand
						{
							OFFSET 8.370511 0.000000 0.000000 
							CHANNELS 3 Zrotation Yrotation Xrotation
							End Site
							{
								OFFSET 4.083176 0.000000 0.000000 
							}
						}
					}
				}
			}
			JOINT rCollar
			{
				OFFSET -3.470700 6.669187 -0.816635 
				CHANNELS 3 Yrotation Zrotation Xrotation
				JOINT rShldr
				{
					OFFSET -3.198488 0.000000 0.000000 
					CHANNELS 3 Zrotation Yrotation Xrotation
					JOINT rForeArm
					{
						OFFSET -10.139888 0.000000 0.000000 
						CHANNELS 3 Yrotation Zrotation Xrotation
						JOINT rHand
						{
							OFFSET -8.370511 0.000000 0.000000 
							CHANNELS 3 Zrotation Yrotation Xrotation
							End Site
							{
								OFFSET -4.083176 0.000000 0.000000 
							}
						}
					}
				}
			}
		}
	}
	JOINT lThigh
	{
		OFFSET 5.308129 -1.633274 1.361059 
		CHANNELS 3 Xrotation Zrotation Yrotation
		JOINT lShin
		{
			OFFSET -2.041588 -20.007561 0.000000 
			CHANNELS 3 Xrotation Zrotation Yrotation
			JOINT lFoot
			{
				OFFSET 0.000000 -19.190928 -1.224953 
				CHANNELS 3 Xrotation Yrotation Zrotation
				End Site
				{
					OFFSET 0.000000 -2.449906 4.627600 
				}
			}
		}
	}
	JOINT rThigh
	{
		OFFSET -5.308129 -1.633274 1.361059 
		CHANNELS 3 Xrotation Zrotation Yrotation
		JOINT rShin
		{
			OFFSET 2.041588 -20.007561 0.000000 
			CHANNELS 3 Xrotation Zrotation Yrotation
			JOINT rFoot
			{
				OFFSET 0.000000 -19.190928 -1.224953 
				CHANNELS 3 Xrotation Yrotation Zrotation
				End Site
				{
					OFFSET 0.000000 -2.449906 4.627600 
				}
			}
		}
	}
}
MOTION
Frames: 8
Frame Time: 0.011111
68.365768 53.463829 81.578644 0.471296 1.925473 -127.061432 32.488144 -3.925297 2.715051 -24.920626 6.878979 1.048803 -7.638703 2.555520 6.453251 -0.699469 -3.330130 13.561702 2.971642 -4.490881 1.927035 -69.362198 -35.699444 32.047539 -67.331390 9.381029 15.786381 8.524705 12.647240 -39.807995 -4.704987 0.510038 2.448925 71.156364 28.829607 10.258158 47.169373 -7.003351 7.043138 -8.534408 -12.637552 54.134621 15.512424 1.894568 1.486764 14.102922 -5.926855 -2.690141 -15.865631 -15.907833 -8.144692 -24.431053 -10.985050 0.587747 16.530283 5.864913 3.028167 -14.142489 1.778754 3.492674 
68.082611 53.454403 81.333199 0.488267 2.155409 -126.990593 32.402660 -3.630693 2.947212 -24.941008 6.998813 1.064257 -7.320815 2.323062 6.620809 -0.883920 -3.615675 13.867728 2.971642 -4.490881 1.927035 -69.476532 -35.266808 31.781874 -67.192635 9.386054 15.713542 8.524705 12.647240 -38.645882 -4.704987 0.510038 2.448925 70.711212 28.949490 10.417413 47.189869 -7.006193 7.043495 -8.534408 -12.637552 54.017441 15.795492 2.099532 1.106406 13.869780 -5.927749 -2.649579 -15.560873 -15.604892 -7.967710 -24.745260 -10.653898 0.689259 16.853823 5.855452 3.075490 -11.923500 2.645675 3.702357 
67.786880 53.437119 81.081467 0.545040 2.300426 -126.820305 32.423298 -3.483974 3.363895 -24.929476 6.762276 1.157123 -7.252805 2.698793 6.621893 -0.921664 -4.120668 13.922657 2.971642 -4.490881 1.927035 -69.086098 -34.416466 31.934967 -67.871597 9.347191 16.042156 8.524705 12.647240 -38.470104 -4.704987 0.510038 2.448925 70.770203 29.083515 10.033931 47.200451 -7.011234 7.052103 -8.534408 -12.637552 53.841652 16.205559 2.255848 0.283816 13.727438 -5.939018 -2.617980 -15.659040 -14.871504 -7.711483 -24.856508 -10.368577 0.715706 17.238377 5.847233 3.119442 -9.473047 3.099996 3.732361 
67.467590 53.400658 80.810562 0.483407 2.190831 -126.560616 32.485344 -3.536242 3.432835 -24.810286 6.556676 1.200087 -7.356775 3.064490 6.682820 -0.590902 -4.390198 14.107851 2.971642 -4.490881 1.927035 -68.523743 -33.765507 32.630039 -68.188866 9.324342 16.193888 8.524705 12.647240 -37.718147 -4.704987 0.510038 2.448925 70.850052 29.382788 10.041371 47.003651 -6.957985 6.978968 -8.534408 -12.637552 54.017441 16.693348 2.167656 -0.474824 13.822286 -5.938366 -2.665704 -15.752079 -14.320053 -7.555239 -24.715734 -10.399858 0.599994 17.632833 5.835212 3.182222 -7.240420 3.748693 3.743149 
67.149223 53.382431 80.525833 0.433798 2.183002 -126.270088 32.400867 -3.453306 3.354841 -24.692890 6.638996 1.176139 -7.600052 3.012159 6.865645 0.203577 -4.406321 14.457973 2.971642 -4.490881 1.927035 -69.924675 -35.754181 29.652685 -64.757492 9.451860 14.562645 8.524705 12.647240 -40.364639 -4.704987 0.510038 2.448925 70.571053 29.738895 10.627576 46.652096 -6.862121 6.841658 -8.534408 -12.637552 53.763531 16.964825 2.215586 -0.905766 14.070670 -5.927293 -2.696322 -15.533701 -14.209802 -7.468862 -24.667299 -10.312240 1.033435 18.141357 5.815986 3.254536 -5.969950 4.189447 3.718888 
66.803215 53.373631 80.232300 0.390474 2.177454 -125.969658 32.252438 -3.441097 3.493477 -24.536131 6.745391 1.213698 -7.839508 3.021601 6.922655 0.872432 -4.665963 14.548306 2.971642 -4.490881 1.927035 -70.103699 -35.183136 29.861799 -64.822617 9.455735 14.606245 8.524705 12.647240 -39.993538 -4.704987 0.510038 2.448925 70.420502 29.902790 10.712678 46.631611 -6.859099 6.841413 -8.534408 -12.637552 53.060402 17.261623 2.235498 -1.304604 14.324083 -5.927300 -2.738746 -15.458617 -13.937102 -7.350383 -24.592934 -10.202609 1.220577 18.791538 5.795273 3.349459 -5.602287 5.142578 3.829249 
66.437088 53.336231 79.926842 0.467507 2.064405 -125.673828 32.250957 -3.412431 3.781550 -24.348742 6.649238 1.302343 -8.194002 3.317059 6.809049 1.533711 -5.069672 14.367361 2.971642 -4.490881 1.927035 -70.120796 -34.830997 29.964483 -64.450569 9.457935 14.432419 8.524705 12.647240 -39.837292 -4.704987 0.510038 2.448925 70.552376 29.915880 10.250151 46.848759 -6.916629 6.913946 -8.534408 -12.637552 52.620949 17.691702 2.225901 -1.677461 14.685914 -5.917858 -2.789852 -15.569291 -13.410301 -7.200496 -24.273649 -10.057287 1.133718 19.469255 5.780124 3.417629 -5.609978 5.906009 3.929495 
66.089195 53.318951 79.605331 0.552449 1.991619 -125.211258 32.236179 -3.144673 3.607196 -24.270458 6.678852 1.220478 -7.932103 3.214490 7.013526 1.532624 -5.008024 14.751296 2.971642 -4.490881 1.927035 -70.258904 -34.505192 29.230734 -63.650875 9.448266 14.052725 8.524705 12.647240 -40.100964 -4.704987 0.510038 2.448925 70.490189 29.889591 10.442590 46.910667 -6.933345 6.941398 -8.534408 -12.637552 52.513531 17.947104 2.372337 -1.996414 15.235725 -5.905890 -2.868073 -15.489892 -13.136175 -7.082338 -23.844442 -9.940094 0.690121 20.044153 5.756793 3.514536 -5.183473 6.352847 3.956384 
